<svg width="24" height="24" viewBox="0 0 24 24" fill="none" xmlns="http://www.w3.org/2000/svg">
<g id="apple">
<path id="Vector" d="M22.1924 18.7033C21.8294 19.5418 21.3998 20.3136 20.9021 21.0232C20.2236 21.9906 19.668 22.6602 19.2399 23.032C18.5762 23.6424 17.8651 23.955 17.1036 23.9728C16.557 23.9728 15.8978 23.8172 15.1304 23.5017C14.3605 23.1876 13.6529 23.032 13.006 23.032C12.3275 23.032 11.5998 23.1876 10.8215 23.5017C10.0419 23.8172 9.41396 23.9816 8.93382 23.9979C8.20362 24.0291 7.47579 23.7076 6.7493 23.032C6.28561 22.6276 5.70562 21.9343 5.01083 20.9521C4.26537 19.9032 3.6525 18.687 3.17237 17.3004C2.65816 15.8026 2.40039 14.3523 2.40039 12.9482C2.40039 11.3398 2.74794 9.95259 3.44406 8.7901C3.99116 7.85635 4.71899 7.11978 5.62992 6.57906C6.54086 6.03834 7.52512 5.76279 8.58509 5.74516C9.16507 5.74516 9.92564 5.92456 10.8708 6.27714C11.8133 6.63091 12.4185 6.81031 12.6838 6.81031C12.8821 6.81031 13.5544 6.60054 14.6941 6.18233C15.7718 5.79449 16.6814 5.6339 17.4266 5.69716C19.4458 5.86012 20.9628 6.6561 21.9717 8.09013C20.1658 9.18431 19.2725 10.7169 19.2903 12.6829C19.3065 14.2142 19.8621 15.4886 20.9539 16.5004C21.4487 16.97 22.0013 17.333 22.6161 17.5907C22.4827 17.9774 22.342 18.3477 22.1924 18.7033ZM17.5614 0.480134C17.5614 1.68041 17.1229 2.8011 16.2489 3.8384C15.1941 5.07155 13.9183 5.78412 12.5348 5.67168C12.5171 5.52768 12.5069 5.37613 12.5069 5.21688C12.5069 4.06462 13.0085 2.83147 13.8993 1.8232C14.344 1.3127 14.9096 0.888225 15.5955 0.549613C16.28 0.216053 16.9274 0.0315842 17.5362 1.07373e-08C17.554 0.160454 17.5614 0.320924 17.5614 0.480119V0.480134Z" fill="#0C0F0A"/>
</g>
</svg>
