<svg width="24" height="24" viewBox="0 0 24 24" fill="none" xmlns="http://www.w3.org/2000/svg">
<path fill-rule="evenodd" clip-rule="evenodd" d="M23.5213 12.2739C23.5221 11.4509 23.4492 10.6294 23.3036 9.81934H12V14.4609H18.4584C18.3251 15.1953 18.0442 15.895 17.6325 16.5176C17.2209 17.1402 16.6873 17.6728 16.0638 18.0832V21.0946H19.9422C22.2115 19.0047 23.5207 15.9285 23.5207 12.2739H23.5213Z" fill="#3E82F1"/>
<path fill-rule="evenodd" clip-rule="evenodd" d="M11.9992 23.9998C15.2392 23.9998 17.9561 22.9252 19.9415 21.0928L16.063 18.0814C14.9884 18.8014 13.6138 19.2274 11.9992 19.2274C8.87382 19.2274 6.22775 17.1166 5.2846 14.2798H1.27539V17.393C2.27501 19.3799 3.80716 21.0499 5.7008 22.2165C7.59444 23.3831 9.77505 24.0005 11.9992 23.9998Z" fill="#32A753"/>
<path fill-rule="evenodd" clip-rule="evenodd" d="M5.28604 14.2805C4.78356 12.8021 4.78356 11.199 5.28604 9.72054V6.61133H1.27615C0.436986 8.284 0 10.1295 0 12.0009C0 13.8722 0.436986 15.7178 1.27615 17.3904L5.28604 14.2805Z" fill="#F9BB00"/>
<path d="M1.27539 6.61146L5.28528 9.72067C6.2291 6.88382 8.87449 4.77303 11.9999 4.77303C13.7621 4.77303 15.3437 5.37978 16.5875 6.56764L20.0298 3.12539C17.9513 1.18921 15.2352 7.37013e-07 11.9992 7.37013e-07C9.77446 -0.000778984 7.59331 0.617134 5.69954 1.78468C3.80577 2.95223 2.27399 4.62341 1.27539 6.61146Z" fill="#E74133"/>
</svg>
