<svg width="277" height="204" viewBox="0 0 277 204" fill="none" xmlns="http://www.w3.org/2000/svg">
<g clip-path="url(#clip0_2_1146)">
<path d="M61.7762 56.2936L10.2969 90.8516L61.0038 166.921L112.483 132.363L61.7762 56.2936Z" fill="#F4F4F4"/>
<path d="M85.8811 128.764L85.2938 132.393L59.7012 128.691L60.2885 125.062L85.8811 128.764Z" fill="#E0E0E0"/>
<path d="M72.9932 115.822L76.6637 116.352L72.5941 141.639L68.9189 141.105L72.9932 115.822Z" fill="#E0E0E0"/>
<path d="M49.4425 83.6843C49.4792 83.7349 44.3221 87.2664 37.9217 91.5577C31.5212 95.8489 26.3045 99.293 26.2678 99.2377C26.2311 99.1825 31.3881 95.6555 37.7886 91.3597C44.1891 87.0638 49.3829 83.629 49.4425 83.6843Z" fill="#E0E0E0"/>
<path d="M68.3544 78.9145C68.3911 78.9697 59.8113 84.7896 49.1943 91.9171C38.5773 99.0446 29.9241 104.777 29.8966 104.726C29.869 104.676 38.4305 98.8467 49.0612 91.7191C59.692 84.5916 68.3177 78.8592 68.3544 78.9145Z" fill="#E0E0E0"/>
<path d="M72.1483 84.6059C72.1851 84.6611 63.6052 90.4856 52.9882 97.6132C42.3713 104.741 33.718 110.473 33.6905 110.418C33.663 110.363 42.2336 104.543 52.8552 97.4106C63.4767 90.2784 72.1116 84.5506 72.1483 84.6059Z" fill="#E0E0E0"/>
<path d="M75.943 90.3012C75.9797 90.3564 67.3999 96.1809 56.7829 103.304C46.1659 110.427 37.5127 116.168 37.5127 116.113C37.5127 116.058 46.0512 110.233 56.6728 103.106C67.2944 95.9783 75.9063 90.2459 75.943 90.3012Z" fill="#E0E0E0"/>
<path d="M79.7238 95.9965C79.7605 96.0517 71.1807 101.872 60.5637 108.999C49.9467 116.127 41.2935 121.859 41.2706 121.804C41.2476 121.749 49.8229 115.929 60.4536 108.801C71.0843 101.674 79.7238 95.9412 79.7238 95.9965Z" fill="#E0E0E0"/>
<path d="M233.917 107.266L190.683 136.289L233.267 200.174L276.501 171.151L233.917 107.266Z" fill="#F4F4F4"/>
<path d="M254.165 168.141L253.674 171.189L232.179 168.081L232.67 165.033L254.165 168.141Z" fill="#E0E0E0"/>
<path d="M243.337 157.271L246.425 157.718L243.002 178.953L239.919 178.507L243.337 157.271Z" fill="#E0E0E0"/>
<path d="M223.544 130.302C223.581 130.358 219.254 133.327 213.877 136.933C208.499 140.538 204.113 143.42 204.076 143.379C204.04 143.337 208.371 140.358 213.744 136.748C219.116 133.139 223.507 130.224 223.544 130.302Z" fill="#E0E0E0"/>
<path d="M239.442 126.274C239.479 126.329 232.28 131.228 223.384 137.209C214.487 143.19 207.206 148.006 207.169 147.951C207.132 147.896 214.331 142.997 223.228 137.011C232.124 131.026 239.392 126.219 239.442 126.274Z" fill="#E0E0E0"/>
<path d="M242.631 131.053C242.667 131.108 235.469 136.007 226.572 141.993C217.676 147.979 210.394 152.786 210.358 152.73C210.321 152.675 217.497 147.799 226.416 141.814C235.335 135.828 242.603 131.002 242.631 131.053Z" fill="#E0E0E0"/>
<path d="M245.814 135.828C245.851 135.884 238.648 140.783 229.756 146.768C220.864 152.754 213.578 157.561 213.541 157.506C213.504 157.45 220.703 152.556 229.6 146.566C238.496 140.576 245.782 135.782 245.814 135.828Z" fill="#E0E0E0"/>
<path d="M249.026 140.622C249.063 140.677 241.864 145.571 232.968 151.557C224.071 157.543 216.79 162.349 216.753 162.299C216.716 162.248 223.915 157.345 232.812 151.359C241.708 145.373 248.966 140.566 249.026 140.622Z" fill="#E0E0E0"/>
<path d="M165.513 59.0916L118.339 33.7715L81.1869 103.479L128.361 128.799L165.513 59.0916Z" fill="#F4F4F4"/>
<path d="M120.293 106.991L117.301 108.018L109.703 86.9435L112.695 85.9121L120.293 106.991Z" fill="#E0E0E0"/>
<path d="M124.88 91.8711L125.972 94.8962L105.114 102.065L104.022 99.0401L124.88 91.8711Z" fill="#E0E0E0"/>
<path d="M139.7 60.7761C139.663 60.8451 134.882 58.3496 129.014 55.2048C123.146 52.06 118.424 49.4494 118.461 49.3803C118.498 49.3112 123.283 51.8068 129.152 54.9516C135.02 58.0963 139.736 60.7024 139.7 60.7761Z" fill="#E0E0E0"/>
<path d="M151.023 73.3159C150.987 73.3849 143.067 69.2042 133.336 63.9829C123.604 58.7615 115.75 54.4703 115.786 54.4012C115.823 54.3322 123.738 58.5083 133.469 63.7342C143.2 68.9602 151.06 73.2468 151.023 73.3159Z" fill="#E0E0E0"/>
<path d="M148.243 78.5327C148.206 78.6017 140.287 74.4256 130.556 69.2043C120.824 63.983 112.969 59.6871 113.006 59.618C113.043 59.549 120.957 63.7297 130.689 68.951C140.42 74.1724 148.28 78.4636 148.243 78.5327Z" fill="#E0E0E0"/>
<path d="M145.463 83.7491C145.426 83.8182 137.507 79.6421 127.775 74.4207C118.044 69.1994 110.189 64.922 110.226 64.8391C110.262 64.7562 118.177 68.9462 127.908 74.1675C137.64 79.3888 145.499 83.6801 145.463 83.7491Z" fill="#E0E0E0"/>
<path d="M142.682 88.9656C142.646 89.0347 134.727 84.8585 124.995 79.6372C115.264 74.4159 107.404 70.1246 107.445 70.0555C107.487 69.9865 115.397 74.1626 125.128 79.3839C134.86 84.6053 142.719 88.8965 142.682 88.9656Z" fill="#E0E0E0"/>
<path opacity="0.2" d="M142.925 0H141.741V20.2499H142.925V0Z" fill="black"/>
<path d="M114.699 44.7503H169.968C169.968 44.7503 164.866 20.2598 141.916 20.2598C121.503 20.2598 114.699 44.7503 114.699 44.7503Z" fill="#C5292A"/>
<path d="M142.926 0H141.742V20.2499H142.926V0Z" fill="#C5292A"/>
<path d="M265.392 202.512C265.392 202.577 206.09 202.632 132.951 202.632C59.811 202.632 0.5 202.591 0.5 202.512C0.5 202.434 59.7926 202.393 132.951 202.393C206.109 202.393 265.392 202.443 265.392 202.512Z" fill="#323232"/>
<path d="M15.1636 173.676C15.9393 173.733 16.6958 173.945 17.3879 174.301C18.08 174.657 18.6936 175.149 19.1919 175.748C20.1829 176.954 20.8846 178.372 21.2428 179.892C22.0182 182.802 21.5411 186.242 20.7152 189.138C17.5769 188.01 15.6361 184.649 14.7506 182.881C13.3742 180.09 12.5529 174.197 15.1498 173.672" fill="#C5292A"/>
<path d="M25.2346 192.669C24.7633 191.936 24.4938 191.09 24.4535 190.219C24.4132 189.347 24.6036 188.48 25.0052 187.706C25.4193 186.939 25.9816 186.263 26.659 185.717C27.3365 185.17 28.1157 184.765 28.951 184.524C29.7172 184.285 30.6073 184.188 31.2726 184.635C31.5725 184.862 31.806 185.167 31.9489 185.516C32.0917 185.865 32.1386 186.246 32.0847 186.619C31.9642 187.367 31.6475 188.07 31.167 188.654C29.6392 190.731 27.7856 192.458 25.2024 192.669" fill="#C5292A"/>
<path d="M25.583 202.399C25.515 202.203 25.4673 202.001 25.4408 201.796C25.3582 201.363 25.2481 200.806 25.1151 200.138C24.7032 198.31 24.5886 196.427 24.7755 194.562C24.9919 192.688 25.7031 190.906 26.8356 189.401C27.1816 188.95 27.5807 188.544 28.0239 188.19C28.1444 188.094 28.27 188.005 28.4002 187.923C28.4416 187.888 28.488 187.86 28.5378 187.84C27.9575 188.337 27.4273 188.891 26.9549 189.493C25.8821 191 25.2066 192.755 24.9912 194.594C24.6975 196.74 25.06 198.706 25.2711 200.12C25.3812 200.824 25.4729 201.395 25.5234 201.791C25.5595 201.992 25.5795 202.195 25.583 202.399Z" fill="#323232"/>
<path d="M16.1729 178.109C16.2252 178.182 16.2684 178.261 16.3013 178.344C16.3839 178.528 16.494 178.759 16.6225 179.049C16.9024 179.661 17.2924 180.55 17.7649 181.65C18.7101 183.856 19.9764 186.922 21.2978 190.339C22.6192 193.755 23.7433 196.872 24.5095 199.142C24.9041 200.275 25.2115 201.196 25.4271 201.836C25.5235 202.139 25.5969 202.383 25.6565 202.572C25.6893 202.657 25.7124 202.745 25.7254 202.835C25.6788 202.757 25.6419 202.673 25.6153 202.586C25.5464 202.402 25.4593 202.162 25.3445 201.863L24.3764 199.193C23.5552 196.941 22.4081 193.829 21.0913 190.417C19.7745 187.005 18.5266 183.929 17.6181 181.71C17.1593 180.619 16.806 179.73 16.5445 179.081C16.4252 178.786 16.3288 178.551 16.2554 178.363C16.221 178.281 16.1933 178.196 16.1729 178.109Z" fill="#323232"/>
<path d="M21.8532 195.961C20.9091 194.384 19.6045 193.055 18.0472 192.084C16.4898 191.112 14.7245 190.527 12.8972 190.376C11.9795 190.312 10.8509 190.468 10.4379 191.297C10.025 192.126 10.5756 193.139 11.2087 193.811C12.554 195.223 14.2858 196.204 16.1858 196.63C18.0858 197.057 20.069 196.909 21.8853 196.205" fill="#C5292A"/>
<path d="M14.3106 192.871C14.5051 192.862 14.7001 192.869 14.8933 192.894C15.1195 192.907 15.3447 192.933 15.5677 192.973C15.8292 193.023 16.1366 193.051 16.4578 193.143C16.8168 193.219 17.1708 193.318 17.5177 193.438C17.9196 193.567 18.3134 193.721 18.6968 193.898C19.5789 194.295 20.4132 194.79 21.1836 195.376C21.9452 195.975 22.6349 196.661 23.2391 197.42C23.5 197.751 23.7406 198.097 23.9594 198.456C24.1573 198.767 24.338 199.088 24.5008 199.419C24.6387 199.688 24.7612 199.964 24.8679 200.247C24.9599 200.457 25.0381 200.672 25.1019 200.892C25.1699 201.076 25.2205 201.265 25.2533 201.458C25.2028 201.458 24.9826 200.666 24.3632 199.488C24.1945 199.171 24.0092 198.864 23.808 198.567C23.5844 198.218 23.3425 197.881 23.0831 197.558C21.883 196.07 20.3526 194.884 18.6142 194.096C18.2151 193.921 17.8343 193.755 17.4626 193.636C17.1214 193.511 16.7738 193.405 16.4211 193.318C15.1364 192.963 14.306 192.922 14.3106 192.871Z" fill="#323232"/>
<path d="M222.58 48.5671C221.231 48.8756 220.575 50.4364 220.446 51.8177C220.318 53.199 220.492 54.6632 219.914 55.9248C219.263 57.343 217.707 58.3927 217.657 59.9536C217.625 60.9067 218.189 61.7954 218.162 62.7577C218.116 64.3231 216.528 65.5203 216.441 67.0673C216.381 68.1954 217.129 69.2728 216.95 70.3871C216.813 71.2527 216.138 71.9341 215.854 72.7629C215.289 74.4205 216.423 76.2392 217.895 77.1693C218.721 77.6898 219.649 78.0233 220.616 78.1465C221.583 78.2696 222.565 78.1793 223.493 77.882C224.422 77.5848 225.274 77.0876 225.992 76.4253C226.709 75.7629 227.273 74.9515 227.645 74.0475C228.462 72.0584 228.283 69.8161 228.104 67.6751C227.553 60.9957 227.144 54.3072 226.874 47.6094" fill="#323232"/>
<path d="M218.662 72.1328C218.94 71.9597 219.156 71.7036 219.281 71.4007C219.414 71.0403 219.467 70.6555 219.438 70.2726C219.387 69.7649 219.275 69.2654 219.103 68.7854C218.883 68.182 218.802 67.5369 218.864 66.8976C218.979 66.1793 219.493 65.59 219.956 65.0099C220.205 64.7259 220.414 64.4082 220.575 64.066C220.737 63.7199 220.763 63.3255 220.649 62.9609C220.41 62.2104 219.676 61.6579 219.341 60.7877C219.184 60.3569 219.158 59.8887 219.268 59.4432C219.372 59.0255 219.526 58.622 219.727 58.2415C220.114 57.5561 220.422 56.8285 220.644 56.0728C220.965 54.6132 220.814 53.2181 221.034 52.0716C221.156 51.1534 221.562 50.2967 222.195 49.6221C222.374 49.4404 222.578 49.2854 222.801 49.1617C222.877 49.1216 222.959 49.0921 223.044 49.0742C222.756 49.2331 222.492 49.4315 222.259 49.6636C221.673 50.3449 221.304 51.1869 221.199 52.0809C221.119 52.6915 221.076 53.3066 221.071 53.9226C221.069 54.6475 220.999 55.3706 220.86 56.082C220.641 56.8551 220.333 57.5999 219.942 58.3013C219.598 59.0242 219.282 59.8714 219.584 60.6634C219.887 61.4553 220.617 62.0032 220.897 62.8504C221.023 63.269 220.992 63.7195 220.809 64.1166C220.631 64.4932 220.399 64.8421 220.121 65.1526C219.662 65.7327 219.162 66.2853 219.052 66.9299C218.988 67.5413 219.06 68.1594 219.263 68.7394C219.427 69.2343 219.529 69.7478 219.566 70.268C219.589 70.6686 219.518 71.0691 219.36 71.4375C219.261 71.6685 219.102 71.8688 218.901 72.0177C218.829 72.0704 218.748 72.1094 218.662 72.1328Z" fill="#455A64"/>
<path d="M215.073 83.0488L210.944 95.0201L193.674 95.941L190.793 102.387L208.824 104.229C209.676 104.58 210.59 104.754 211.511 104.74C212.432 104.727 213.34 104.526 214.182 104.151C215.023 103.775 215.78 103.232 216.406 102.555C217.033 101.877 217.516 101.079 217.826 100.209L222.639 86.7277L215.073 83.0488Z" fill="#B78876"/>
<path d="M250.774 196.008C250.774 196.008 238.12 155.665 237.849 154.357C237.606 153.169 242.437 124.139 243.052 116.602L225.952 117.242V117.412L218.685 117.817L225.191 200.29H233.059L232.279 172.917C237.134 185.989 244.089 199.314 244.089 199.314L250.774 196.008Z" fill="#B78876"/>
<path d="M232.601 182.738C232.601 182.489 232.504 173.566 232.504 173.566C232.408 174.1 229.49 165.821 229.559 165.319C229.596 165.057 232.601 182.738 232.601 182.738Z" fill="#A36957"/>
<path d="M229.228 161.396C229.187 161.561 229.17 161.73 229.177 161.898C229.152 162.358 229.152 162.82 229.177 163.28C229.177 163.57 229.219 163.883 229.255 164.224C229.292 164.564 229.342 164.923 229.42 165.296C229.584 166.111 229.8 166.914 230.067 167.7C230.636 169.371 231.269 170.831 231.714 171.89C231.926 172.35 232.109 172.788 232.265 173.138C232.321 173.3 232.398 173.455 232.494 173.598C232.47 173.439 232.424 173.284 232.357 173.138C232.251 172.834 232.091 172.396 231.898 171.858C231.494 170.78 230.889 169.307 230.324 167.654C230.057 166.879 229.838 166.089 229.668 165.287C229.586 164.919 229.531 164.564 229.48 164.233C229.43 163.901 229.393 163.588 229.37 163.312C229.315 162.741 229.292 162.281 229.278 161.958C229.287 161.77 229.27 161.581 229.228 161.396Z" fill="#A36957"/>
<path d="M225.044 200.709V199.968L233.105 199.613L233.128 202.675L232.633 202.707C230.417 202.836 221.369 203.214 219.892 202.767C218.235 202.27 225.044 200.709 225.044 200.709Z" fill="#FFCC00"/>
<path d="M233.233 202.49C233.188 202.493 233.142 202.493 233.096 202.49L232.701 202.518L231.242 202.583C230.013 202.634 228.31 202.68 226.434 202.689C224.557 202.698 222.85 202.666 221.616 202.629L220.162 202.569H219.763H219.625C219.671 202.565 219.717 202.565 219.763 202.569H220.162L221.621 202.597C222.85 202.597 224.553 202.634 226.429 202.624C228.306 202.615 230.013 202.583 231.242 202.55L232.701 202.513H233.233V202.49Z" fill="#323232"/>
<path d="M222.415 202.748C222.348 202.508 222.256 202.275 222.14 202.053C221.995 201.849 221.827 201.662 221.64 201.496C221.89 201.586 222.098 201.767 222.222 202.003C222.374 202.22 222.442 202.485 222.415 202.748Z" fill="#323232"/>
<path d="M224.792 201.538C224.792 201.538 224.659 201.413 224.539 201.229C224.42 201.045 224.346 200.884 224.369 200.87C224.392 200.856 224.502 200.99 224.622 201.174C224.741 201.358 224.815 201.524 224.792 201.538Z" fill="#323232"/>
<path d="M225.443 201.211C225.443 201.234 225.297 201.146 225.159 201.022C225.021 200.898 224.92 200.783 224.939 200.764C224.957 200.746 225.085 200.829 225.223 200.953C225.361 201.077 225.462 201.17 225.443 201.211Z" fill="#323232"/>
<path d="M225.851 200.429C225.716 200.479 225.572 200.498 225.429 200.485C225.289 200.503 225.146 200.489 225.012 200.443C225.145 200.393 225.288 200.374 225.429 200.387C225.571 200.368 225.716 200.382 225.851 200.429Z" fill="#323232"/>
<path d="M225.989 199.895C225.852 199.984 225.693 200.033 225.53 200.034C225.374 200.054 225.216 200.032 225.071 199.969C225.223 199.943 225.376 199.931 225.53 199.932C225.681 199.905 225.835 199.892 225.989 199.895Z" fill="#323232"/>
<path d="M224.521 200.834C224.35 200.866 224.174 200.866 224.003 200.834C223.817 200.811 223.634 200.771 223.457 200.714C223.346 200.684 223.24 200.64 223.14 200.585C223.079 200.549 223.033 200.492 223.012 200.424C223.003 200.386 223.006 200.346 223.02 200.309C223.034 200.272 223.058 200.24 223.09 200.217C223.217 200.155 223.356 200.122 223.497 200.121C223.638 200.12 223.778 200.15 223.906 200.21C224.034 200.269 224.148 200.356 224.238 200.465C224.329 200.574 224.394 200.701 224.429 200.838C224.438 200.884 224.438 200.931 224.429 200.977C224.377 200.81 224.297 200.654 224.191 200.516C224.069 200.378 223.909 200.279 223.732 200.231C223.529 200.165 223.308 200.181 223.117 200.277C223.039 200.337 223.071 200.433 223.158 200.489C223.252 200.539 223.35 200.581 223.452 200.613C223.625 200.67 223.801 200.714 223.98 200.746C224.324 200.82 224.521 200.82 224.521 200.834Z" fill="#323232"/>
<path d="M224.388 200.861C224.321 200.754 224.298 200.626 224.324 200.502C224.34 200.367 224.389 200.237 224.466 200.124C224.509 200.048 224.571 199.983 224.645 199.936C224.72 199.889 224.805 199.862 224.893 199.857C224.945 199.87 224.99 199.901 225.02 199.945C225.05 199.99 225.062 200.044 225.053 200.097C225.042 200.179 225.012 200.258 224.966 200.327C224.896 200.441 224.815 200.548 224.723 200.645C224.643 200.737 224.542 200.808 224.429 200.852C224.429 200.852 224.53 200.76 224.672 200.594C224.755 200.499 224.827 200.396 224.888 200.286C224.957 200.175 225.007 199.977 224.888 199.954C224.769 199.931 224.631 200.074 224.553 200.175C224.48 200.275 224.43 200.39 224.406 200.511C224.388 200.627 224.381 200.744 224.388 200.861Z" fill="#323232"/>
<path d="M233.064 200.29C233.064 200.29 232.835 200.29 232.472 200.313C232 200.369 231.554 200.558 231.183 200.856C230.813 201.155 230.533 201.552 230.376 202.002C230.256 202.348 230.247 202.583 230.229 202.578C230.211 202.573 230.229 202.518 230.229 202.417C230.241 202.268 230.268 202.122 230.311 201.979C230.457 201.508 230.738 201.09 231.119 200.778C231.505 200.471 231.973 200.287 232.463 200.248C232.616 200.23 232.77 200.23 232.922 200.248C232.971 200.256 233.019 200.27 233.064 200.29Z" fill="#323232"/>
<path d="M229.205 201.845C228.82 201.936 228.425 201.975 228.03 201.961C227.638 201.981 227.244 201.947 226.86 201.859C226.86 201.832 227.383 201.859 228.03 201.859C228.677 201.859 229.2 201.818 229.205 201.845Z" fill="#323232"/>
<path d="M230.774 201.832C230.774 201.832 230.733 201.943 230.678 202.063C230.623 202.182 230.595 202.293 230.568 202.288C230.54 202.284 230.527 202.164 230.591 202.021C230.655 201.879 230.756 201.809 230.774 201.832Z" fill="#323232"/>
<path d="M231.367 201.091C231.367 201.091 231.335 201.193 231.252 201.276C231.169 201.359 231.087 201.414 231.064 201.395C231.041 201.377 231.096 201.294 231.179 201.207C231.261 201.119 231.344 201.068 231.367 201.091Z" fill="#323232"/>
<path d="M232.211 200.751C232.211 200.778 232.1 200.778 231.981 200.82C231.862 200.861 231.779 200.926 231.756 200.907C231.733 200.889 231.802 200.778 231.949 200.728C232.096 200.677 232.22 200.723 232.211 200.751Z" fill="#323232"/>
<path d="M232.812 200.584C232.812 200.611 232.78 200.653 232.711 200.676C232.642 200.699 232.583 200.704 232.573 200.676C232.564 200.648 232.61 200.607 232.674 200.584C232.739 200.561 232.803 200.561 232.812 200.584Z" fill="#323232"/>
<path d="M243.928 199.995L243.625 199.318L250.833 195.686L252.104 198.448L251.646 198.683C249.677 199.71 241.579 203.771 240.047 203.973C238.354 204.217 243.928 199.995 243.928 199.995Z" fill="#FFCC00"/>
<path d="M252.132 198.25L252.013 198.324L251.659 198.508L250.356 199.171C249.255 199.719 247.723 200.46 246.011 201.243C244.3 202.026 242.731 202.693 241.593 203.167L240.239 203.715L239.872 203.858C239.83 203.878 239.785 203.892 239.739 203.9L239.863 203.84L240.226 203.679L241.565 203.103C242.699 202.615 244.259 201.933 245.97 201.151C247.681 200.368 249.218 199.641 250.329 199.106L251.641 198.476L252.003 198.305L252.132 198.25Z" fill="#323232"/>
<path d="M242.383 202.932C242.224 202.738 242.043 202.562 241.846 202.408C241.631 202.28 241.401 202.178 241.162 202.104C241.426 202.1 241.684 202.178 241.902 202.326C242.12 202.474 242.288 202.686 242.383 202.932Z" fill="#323232"/>
<path d="M244.039 200.851C244.039 200.851 243.864 200.796 243.681 200.676C243.497 200.556 243.364 200.441 243.378 200.418C243.392 200.395 243.552 200.473 243.736 200.593C243.919 200.713 244.052 200.828 244.039 200.851Z" fill="#323232"/>
<path d="M244.488 200.29C244.488 200.313 244.332 200.29 244.153 200.235C243.974 200.18 243.841 200.111 243.846 200.083C243.962 200.072 244.079 200.091 244.185 200.138C244.36 200.18 244.497 200.244 244.488 200.29Z" fill="#323232"/>
<path d="M244.553 199.406C244.553 199.434 244.401 199.531 244.19 199.632C244.068 199.705 243.932 199.751 243.791 199.765C243.791 199.738 243.942 199.641 244.149 199.54C244.272 199.467 244.41 199.421 244.553 199.406Z" fill="#323232"/>
<path d="M244.461 198.862C244.461 198.862 244.328 199.046 244.09 199.18C243.954 199.272 243.794 199.32 243.631 199.318C243.762 199.229 243.902 199.154 244.048 199.092C244.273 198.968 244.438 198.839 244.461 198.862Z" fill="#323232"/>
<path d="M243.52 200.327C243.38 200.423 243.225 200.495 243.061 200.539C242.881 200.592 242.697 200.63 242.511 200.654C242.398 200.668 242.284 200.668 242.171 200.654C242.1 200.649 242.034 200.616 241.988 200.562C241.966 200.529 241.955 200.491 241.955 200.451C241.955 200.412 241.966 200.374 241.988 200.341C242.127 200.171 242.321 200.056 242.536 200.014C242.751 199.972 242.974 200.006 243.167 200.111C243.281 200.17 243.381 200.254 243.461 200.355C243.516 200.428 243.539 200.474 243.534 200.479C243.421 200.352 243.286 200.248 243.135 200.17C242.973 200.094 242.793 200.067 242.616 200.092C242.511 200.103 242.409 200.135 242.316 200.185C242.223 200.236 242.141 200.304 242.075 200.387C242.024 200.474 242.075 200.548 242.199 200.562C242.304 200.571 242.41 200.571 242.515 200.562C242.698 200.543 242.879 200.511 243.057 200.465C243.318 200.391 243.52 200.313 243.52 200.327Z" fill="#323232"/>
<path d="M243.392 200.405C243.289 200.332 243.217 200.224 243.19 200.101C243.149 199.971 243.14 199.834 243.162 199.7C243.17 199.612 243.2 199.527 243.25 199.454C243.3 199.38 243.368 199.321 243.447 199.281C243.561 199.244 243.827 199.479 243.846 199.567C243.864 199.654 243.713 199.608 243.704 199.682C243.689 199.812 243.658 199.941 243.612 200.064C243.578 200.182 243.515 200.29 243.428 200.377C243.428 200.377 243.483 200.253 243.548 200.046C243.58 199.923 243.603 199.799 243.616 199.673C243.616 199.544 243.616 199.346 243.47 199.378C243.323 199.41 243.281 199.59 243.249 199.719C243.221 199.838 243.221 199.963 243.249 200.082C243.287 200.194 243.335 200.302 243.392 200.405Z" fill="#323232"/>
<path d="M251.077 196.312C251.077 196.312 250.856 196.391 250.544 196.58C250.136 196.824 249.804 197.178 249.585 197.602C249.373 198.029 249.283 198.507 249.324 198.983C249.351 199.351 249.439 199.563 249.42 199.572C249.391 199.527 249.367 199.477 249.351 199.425C249.306 199.284 249.274 199.139 249.255 198.992C249.189 198.502 249.274 198.003 249.498 197.562C249.722 197.121 250.074 196.759 250.508 196.524C250.637 196.452 250.774 196.394 250.916 196.349C250.967 196.329 251.021 196.317 251.077 196.312Z" fill="#323232"/>
<path d="M248.191 199.324C247.544 199.775 246.821 200.106 246.058 200.3C246.058 200.272 246.539 200.088 247.127 199.839C247.714 199.591 248.177 199.301 248.191 199.324Z" fill="#323232"/>
<path d="M249.618 198.665C249.641 198.665 249.618 198.78 249.618 198.914C249.618 199.047 249.618 199.158 249.618 199.167C249.618 199.176 249.526 199.066 249.526 198.914C249.526 198.762 249.595 198.651 249.618 198.665Z" fill="#323232"/>
<path d="M249.852 197.745C249.875 197.745 249.852 197.851 249.825 197.961C249.797 198.072 249.729 198.155 249.706 198.145C249.683 198.136 249.706 198.039 249.733 197.929C249.761 197.818 249.825 197.736 249.852 197.745Z" fill="#323232"/>
<path d="M250.485 197.067C250.485 197.094 250.393 197.136 250.301 197.223C250.21 197.311 250.159 197.403 250.136 197.393C250.113 197.384 250.136 197.255 250.237 197.149C250.338 197.044 250.48 197.067 250.485 197.067Z" fill="#323232"/>
<path d="M250.967 196.689C250.967 196.689 250.967 196.763 250.912 196.814C250.857 196.865 250.806 196.893 250.788 196.874C250.77 196.856 250.788 196.8 250.843 196.749C250.898 196.699 250.949 196.671 250.967 196.689Z" fill="#323232"/>
<path d="M241.942 102.972L240.602 86.5347L247.484 86.659C247.484 86.659 247.801 84.2325 246.787 78.9191C246.163 75.6592 244.002 73.6609 241.574 72.473V72.427L241.363 72.3717C239.365 71.4715 237.232 70.9128 235.05 70.7188L226.585 70.8154C226.585 70.8154 220.12 69.9867 216.555 74.6324C215.179 76.4143 210.907 88.6112 210.907 88.6112L221.07 93.5194L220.12 86.7557C220.12 86.7557 220.313 91.6593 220.937 93.2017C221.281 94.0674 222.313 96.7563 222.313 96.7563L222.18 104.869L241.942 102.972Z" fill="#C5292A"/>
<path d="M237.271 84.1511L236.019 89.5198H247.87L247.09 80.5137L237.271 84.1511Z" fill="#C5292A"/>
<path d="M247.87 89.518C247.352 89.4223 246.827 89.3699 246.301 89.3615C245.328 89.3062 244.007 89.2556 242.502 89.2648C240.997 89.274 239.671 89.3384 238.698 89.4121C238.172 89.4305 237.649 89.4952 237.134 89.6055C237.659 89.6475 238.187 89.6475 238.712 89.6055C239.68 89.5732 241.006 89.5364 242.502 89.5318C243.998 89.5272 245.324 89.5318 246.296 89.5548C246.821 89.5843 247.347 89.572 247.87 89.518Z" fill="#323232"/>
<path d="M236.762 80.4707C236.706 80.9289 236.693 81.3915 236.725 81.852C236.725 82.6946 236.762 83.8549 236.813 85.1395C236.863 86.4241 236.923 87.589 236.978 88.427C236.98 88.8912 237.029 89.354 237.125 89.8083C237.181 89.3501 237.193 88.8876 237.161 88.427C237.161 87.5844 237.125 86.4195 237.074 85.1349C237.024 83.8503 236.964 82.69 236.909 81.8474C236.907 81.3847 236.858 80.9234 236.762 80.4707Z" fill="#323232"/>
<g opacity="0.3">
<path opacity="0.3" d="M225.979 85.1211C225.979 85.1211 228.613 104.722 236.018 104.202C236.018 104.202 239.354 104.165 240.423 101.941V101.066L225.979 85.1211Z" fill="black"/>
</g>
<g opacity="0.3">
<path opacity="0.3" d="M236.762 81.627L235.345 91.2362L236.262 92.9214L237.772 89.6247L237.134 89.6063L236.762 81.627Z" fill="black"/>
</g>
<path d="M222.273 96.7664C222.185 96.6229 222.117 96.468 222.071 96.306C221.956 96.0067 221.805 95.5693 221.612 95.0214C221.152 93.5937 220.774 92.141 220.479 90.6703C220.184 89.1987 219.997 87.7075 219.919 86.2086C219.891 85.6331 219.882 85.1681 219.891 84.8273C219.88 84.6609 219.89 84.4936 219.923 84.3301C219.96 84.3301 219.988 85.0391 220.084 86.1718C220.213 87.6571 220.423 89.1342 220.713 90.5966C221.052 92.3094 221.46 93.8426 221.772 94.9431C221.919 95.4542 222.043 95.8916 222.144 96.2507C222.207 96.4169 222.25 96.59 222.273 96.7664Z" fill="#323232"/>
<path d="M225.264 102.397C225.2 102.397 225.016 101.996 224.856 101.476C224.717 101.157 224.656 100.81 224.677 100.463C224.879 100.744 225.018 101.066 225.085 101.407C225.217 101.719 225.278 102.058 225.264 102.397Z" fill="#323232"/>
<path d="M226.287 102.322C225.94 101.399 225.925 100.382 226.246 99.4492C226.281 99.9274 226.281 100.408 226.246 100.886C226.296 101.363 226.309 101.843 226.287 102.322Z" fill="#323232"/>
<path d="M221.277 93.7447C221.245 93.7999 218.882 92.6765 215.996 91.2307C213.11 89.7849 210.793 88.5602 210.821 88.5003C210.848 88.4405 213.216 89.5685 216.102 91.0143C218.987 92.4601 221.304 93.6848 221.277 93.7447Z" fill="#323232"/>
<path d="M225.443 72.4036C225.494 70.0738 225.508 67.6243 225.508 67.6243C225.508 67.6243 222.53 67.0488 222.011 63.1166C221.516 59.3687 222.901 50.5698 222.901 50.5698C227.251 48.9214 231.77 50.4179 234.748 53.954L234.009 72.864C233.922 75.0603 231.972 76.7363 229.632 76.6258C227.265 76.5107 225.393 74.6229 225.443 72.4036Z" fill="#B78876"/>
<path d="M222.672 57.6017C222.668 57.7307 222.713 57.8565 222.799 57.9532C222.884 58.0499 223.003 58.1103 223.131 58.1219C223.196 58.1283 223.262 58.1212 223.324 58.1012C223.387 58.0812 223.444 58.0486 223.493 58.0055C223.543 57.9625 223.583 57.9097 223.611 57.8506C223.64 57.7914 223.656 57.7271 223.659 57.6615C223.663 57.5329 223.617 57.4077 223.532 57.3118C223.446 57.2158 223.328 57.1564 223.2 57.1458C223.134 57.1359 223.068 57.1402 223.004 57.1586C222.941 57.1769 222.882 57.2088 222.832 57.2521C222.782 57.2954 222.741 57.3491 222.714 57.4094C222.686 57.4697 222.672 57.5353 222.672 57.6017Z" fill="#323232"/>
<path d="M222.488 56.9423C222.547 57.0067 222.947 56.7351 223.474 56.7535C224.002 56.7719 224.392 57.0482 224.456 56.9837C224.52 56.9192 224.429 56.8364 224.259 56.7028C224.029 56.5358 223.753 56.4442 223.47 56.4404C223.19 56.4297 222.915 56.5105 222.685 56.6706C222.515 56.7949 222.456 56.91 222.488 56.9423Z" fill="#323232"/>
<path d="M228.136 57.9415C228.131 58.0709 228.176 58.1973 228.261 58.2942C228.347 58.3912 228.466 58.4512 228.595 58.4618C228.661 58.4718 228.728 58.4674 228.792 58.4488C228.856 58.4302 228.915 58.3978 228.965 58.354C229.015 58.3102 229.055 58.256 229.082 58.1951C229.11 58.1342 229.123 58.0681 229.123 58.0014C229.128 57.8725 229.083 57.7466 228.997 57.6504C228.912 57.5542 228.792 57.4951 228.664 57.4857C228.598 57.4757 228.532 57.4801 228.468 57.4984C228.405 57.5168 228.346 57.5487 228.296 57.592C228.246 57.6353 228.205 57.6889 228.178 57.7492C228.15 57.8096 228.136 57.8752 228.136 57.9415Z" fill="#323232"/>
<path d="M228.099 57.2837C228.159 57.3528 228.558 57.0811 229.086 57.0949C229.613 57.1088 230.003 57.3896 230.072 57.3252C230.141 57.2607 230.04 57.1778 229.87 57.0489C229.644 56.8775 229.369 56.7838 229.086 56.7819C228.805 56.7734 228.529 56.854 228.297 57.0121C228.131 57.1364 228.072 57.2515 228.099 57.2837Z" fill="#323232"/>
<path d="M226.044 61.238C225.762 61.1408 225.469 61.0804 225.172 61.0584C225.035 61.0584 224.906 61.0077 224.888 60.9157C224.877 60.7717 224.912 60.6281 224.989 60.5059L225.42 59.4699C225.821 58.5894 226.151 57.6779 226.406 56.7441C225.937 57.5901 225.535 58.4724 225.204 59.3824C225.062 59.7462 224.92 60.0961 224.787 60.4276C224.698 60.5921 224.669 60.7826 224.704 60.9663C224.722 61.0162 224.752 61.0613 224.79 61.098C224.828 61.1348 224.874 61.1622 224.924 61.1781C225.001 61.2002 225.079 61.2126 225.158 61.2149C225.451 61.2602 225.749 61.2679 226.044 61.238Z" fill="#323232"/>
<path d="M225.508 67.6256C227.343 67.6993 229.163 67.261 230.766 66.3594C230.766 66.3594 229.431 69.0161 225.535 68.551L225.508 67.6256Z" fill="#A36957"/>
<path d="M229.825 55.7139C229.715 55.8843 229.302 55.8106 228.843 55.7139C228.384 55.6172 227.98 55.5389 227.925 55.3409C227.87 55.143 228.352 54.8805 228.967 55.0048C229.582 55.1291 229.935 55.5666 229.825 55.7139Z" fill="#323232"/>
<path d="M224.47 54.9315C224.429 55.1295 223.988 55.2031 223.484 55.2262C222.979 55.2492 222.534 55.2262 222.474 55.0236C222.415 54.821 222.841 54.5355 223.452 54.5079C224.062 54.4802 224.511 54.7427 224.47 54.9315Z" fill="#323232"/>
<path d="M226.053 62.5328C225.995 62.5191 225.934 62.5252 225.88 62.5502C225.826 62.5753 225.782 62.6178 225.755 62.671C225.729 62.7179 225.715 62.7709 225.716 62.8247C225.716 62.8785 225.731 62.9312 225.758 62.9775C225.785 63.0239 225.824 63.0624 225.87 63.0891C225.917 63.1158 225.97 63.1299 226.023 63.1299C226.077 63.1299 226.129 63.1158 226.176 63.0891C226.222 63.0624 226.261 63.0239 226.288 62.9775C226.315 62.9312 226.33 62.8785 226.331 62.8247C226.331 62.7709 226.318 62.7179 226.292 62.671C226.259 62.6091 226.206 62.5604 226.142 62.5328C226.077 62.5051 226.006 62.5003 225.938 62.519" fill="#A36957"/>
<path d="M226.177 62.588C226.177 62.565 226.09 62.4314 225.856 62.4821C225.786 62.5004 225.722 62.5368 225.67 62.5877C225.619 62.6386 225.581 62.7022 225.562 62.7722C225.537 62.8603 225.539 62.9538 225.568 63.0408C225.597 63.1277 225.65 63.2041 225.723 63.2602C225.799 63.3127 225.889 63.3408 225.982 63.3408C226.074 63.3408 226.165 63.3127 226.241 63.2602C226.302 63.219 226.35 63.1611 226.379 63.0934C226.408 63.0256 226.418 62.9509 226.406 62.8781C226.36 62.634 226.181 62.5972 226.172 62.6294C226.163 62.6617 226.236 62.7445 226.223 62.8873C226.22 62.9225 226.208 62.9565 226.189 62.9862C226.17 63.0159 226.143 63.0404 226.113 63.0576C226.077 63.0782 226.037 63.0891 225.996 63.0891C225.954 63.0891 225.914 63.0782 225.879 63.0576C225.847 63.0304 225.822 62.9953 225.808 62.9557C225.793 62.9162 225.789 62.8736 225.796 62.832C225.801 62.7956 225.815 62.7611 225.837 62.7314C225.858 62.7017 225.887 62.6778 225.92 62.6616C226.048 62.5834 226.163 62.6202 226.177 62.588Z" fill="#323232"/>
<path d="M232.968 58.5723C232.509 59.6497 231.371 60.4831 231.527 61.648C231.628 62.3985 232.11 63.0984 232.018 63.8535C231.899 64.7743 230.921 65.4558 230.779 66.3997C230.609 67.5554 231.734 68.4532 232.179 69.5306C232.835 71.1053 232 72.8734 231.977 74.5954C232.004 75.9028 232.502 77.156 233.379 78.1229C234.257 79.0897 235.454 79.7046 236.748 79.8535C237.794 79.941 238.974 79.6233 239.501 78.7209C239.96 77.975 239.859 77.0265 240.125 76.2023C240.529 74.9683 241.699 74.0659 241.96 72.7951C242.419 70.4929 239.621 68.5591 239.804 66.2017C239.882 65.1933 240.501 64.3185 240.763 63.3424C240.929 62.7009 240.942 62.0289 240.8 61.3815C240.658 60.7341 240.366 60.1296 239.946 59.6175C239.253 58.7933 238.253 58.2362 237.652 57.3521C236.987 56.3346 236.964 55.05 236.735 53.8482C236.427 52.3876 235.754 51.0291 234.781 49.8998C233.808 48.7706 232.565 47.9074 231.169 47.3909C229.773 46.8744 228.27 46.7216 226.799 46.9466C225.328 47.1716 223.938 47.7671 222.759 48.6776C222.759 48.6776 222.094 51.7118 225.2 52.2229C228.306 52.734 229.742 52.1446 230.091 53.3924C230.009 53.9064 230.049 54.4327 230.209 54.9281C230.368 55.4235 230.642 55.8739 231.009 56.2425C232.275 57.6146 233.482 57.3199 232.968 58.5723Z" fill="#323232"/>
<path d="M237.9 79.6201C237.805 79.6234 237.709 79.6141 237.616 79.5925C237.347 79.5446 237.082 79.4722 236.827 79.3761C235.879 79.0115 235.048 78.3957 234.422 77.5942C233.984 77.0411 233.639 76.4187 233.404 75.7524C233.136 74.9936 232.995 74.1955 232.986 73.3904C232.977 72.5031 233.088 71.6185 233.317 70.7613C233.442 70.3086 233.595 69.8642 233.775 69.4307C233.965 68.9992 234.132 68.5581 234.276 68.1092C234.402 67.6669 234.402 67.1979 234.276 66.7555C234.141 66.3201 233.968 65.8978 233.757 65.494C233.544 65.0935 233.365 64.6762 233.22 64.2462C233.079 63.8206 233.046 63.3664 233.124 62.9247C233.307 62.0591 233.83 61.4145 234.142 60.7561C234.44 60.1466 234.582 59.4727 234.555 58.7946C234.514 57.8024 234.155 56.85 233.532 56.0781C233.291 55.8077 233.032 55.5539 232.757 55.3184C233.079 55.4997 233.366 55.7367 233.606 56.0182C234.274 56.7889 234.668 57.7608 234.725 58.7808C234.763 59.4884 234.624 60.1943 234.321 60.8344C234.005 61.5158 233.496 62.165 233.34 62.957C233.184 63.7489 233.555 64.5823 233.964 65.3835C234.186 65.7989 234.368 66.2353 234.505 66.6865C234.64 67.1682 234.64 67.6782 234.505 68.1599C234.352 68.6244 234.176 69.0808 233.977 69.5274C233.797 69.9515 233.644 70.3867 233.518 70.8304C233.291 71.6659 233.178 72.5288 233.184 73.395C233.169 74.8702 233.644 76.3084 234.532 77.4837C235.127 78.2752 235.918 78.896 236.827 79.284C237.51 79.551 237.905 79.5925 237.9 79.6201Z" fill="#455A64"/>
<path d="M237.441 56.3867C237.218 56.4448 236.988 56.4788 236.758 56.488C236.128 56.5556 235.492 56.5385 234.867 56.4374C234.393 56.3669 233.938 56.2024 233.529 55.9534C233.119 55.7043 232.763 55.3758 232.481 54.987C232.219 54.4951 232.01 53.9765 231.857 53.4399C231.662 52.904 231.294 52.4488 230.811 52.1461C229.806 51.5061 228.627 51.4278 227.6 51.3035C226.652 51.2561 225.731 50.9677 224.925 50.4655C224.385 50.1063 223.994 49.5608 223.828 48.9323C223.788 48.7619 223.777 48.586 223.796 48.412C223.796 48.2923 223.824 48.2324 223.833 48.2324C223.838 48.4605 223.867 48.6873 223.92 48.9093C224.11 49.497 224.5 49.9989 225.021 50.3274C225.813 50.7909 226.707 51.0504 227.623 51.0825C228.65 51.2022 229.871 51.2621 230.944 51.9435C231.47 52.2746 231.87 52.772 232.082 53.357C232.226 53.88 232.424 54.3862 232.674 54.8673C233.208 55.603 234.009 56.0989 234.904 56.2486C235.509 56.3614 236.125 56.4031 236.739 56.3729C236.973 56.3597 237.208 56.3643 237.441 56.3867Z" fill="#455A64"/>
<path d="M236.303 52.6374C236.13 52.6955 235.949 52.722 235.766 52.7157C234.911 52.7215 234.088 52.3909 233.472 51.7949C233.192 51.5124 232.952 51.1915 232.761 50.8418C232.348 50.1419 231.949 49.2809 231.091 48.9217C230.265 48.6435 229.384 48.5661 228.522 48.6961C227.794 48.7987 227.056 48.7987 226.329 48.6961C225.822 48.6257 225.346 48.4152 224.952 48.0884C224.85 47.9993 224.761 47.8972 224.686 47.7845C224.631 47.7047 224.608 47.6632 224.617 47.6602C224.617 47.6602 224.746 47.8075 225.012 48.0147C225.404 48.2947 225.86 48.472 226.338 48.5304C227.052 48.6112 227.774 48.5988 228.485 48.4935C229.385 48.3461 230.307 48.4252 231.169 48.7238C231.612 48.9236 231.992 49.2422 232.266 49.6446C232.508 50.0036 232.73 50.3755 232.931 50.7589C233.112 51.0935 233.336 51.4031 233.596 51.6797C233.826 51.9137 234.091 52.1109 234.381 52.2645C234.808 52.4881 235.277 52.6184 235.757 52.6467C236.111 52.6421 236.299 52.6144 236.303 52.6374Z" fill="#455A64"/>
<path d="M239.268 78.624C239.245 78.624 239.391 78.3201 239.561 77.7492C239.791 76.9477 239.893 76.1148 239.864 75.2812C239.831 74.0474 239.495 72.8408 238.887 71.7681C238.552 71.165 238.043 70.6262 237.625 69.9632C237.404 69.6255 237.248 69.249 237.166 68.8536C237.094 68.4373 237.129 68.0094 237.267 67.6104C237.524 66.8139 237.983 66.1462 238.084 65.4141C238.185 64.682 237.836 64.0328 237.487 63.4205C237.308 63.1225 237.144 62.8151 236.996 62.4996C236.862 62.1936 236.774 61.8693 236.735 61.5373C236.692 60.9522 236.71 60.3642 236.79 59.783C236.937 58.9615 236.861 58.1154 236.57 57.3335C236.44 57.0596 236.256 56.8152 236.028 56.6152C236.028 56.6152 236.051 56.6152 236.083 56.6429C236.138 56.6699 236.187 56.7057 236.23 56.7488C236.41 56.8988 236.555 57.0856 236.657 57.2967C236.989 58.0853 237.092 58.9519 236.955 59.7968C236.892 60.3672 236.884 60.9424 236.932 61.5143C237.045 62.1576 237.299 62.7677 237.675 63.3007C237.871 63.6119 238.039 63.9401 238.176 64.2815C238.32 64.6499 238.368 65.0496 238.313 65.4418C238.203 66.2475 237.731 66.929 237.492 67.6795C237.367 68.0416 237.334 68.4293 237.396 68.8075C237.476 69.1734 237.622 69.5213 237.827 69.8343C238.217 70.4743 238.745 71.0222 239.079 71.653C239.694 72.762 240.022 74.0077 240.034 75.2766C240.048 76.126 239.918 76.9716 239.648 77.7768C239.575 77.9947 239.486 78.2071 239.382 78.4122C239.354 78.4879 239.316 78.5592 239.268 78.624Z" fill="#455A64"/>
<path d="M220.58 164.418C220.58 164.418 217.487 135.024 217.308 124.163C217.129 113.301 222.176 102.582 222.176 102.582L241.942 101.758C241.942 101.758 245.851 112.776 245.92 117.413C246.058 126.409 243.539 135.291 243.828 142.428L244.488 164.437" fill="#323232"/>
<path d="M245.153 128.277C245.05 128.367 244.941 128.45 244.827 128.526L244.649 128.65L244.456 128.839C244.286 128.987 244.132 129.152 243.997 129.332C243.359 130.114 242.896 131.519 242.451 133.264C242.223 134.232 241.888 135.171 241.451 136.063C241.318 136.308 241.164 136.54 240.992 136.759C240.909 136.869 240.831 136.989 240.735 137.095L240.432 137.399C239.998 137.805 239.495 138.13 238.946 138.356C237.84 138.844 236.587 139.075 235.449 139.65C234.284 140.279 233.383 141.309 232.912 142.551C232.352 143.799 231.994 145.106 231.536 146.331C231.077 147.556 230.457 148.725 229.471 149.471C228.528 150.129 227.408 150.484 226.259 150.489C225.195 150.553 224.208 150.521 223.323 150.654C222.526 150.737 221.764 151.026 221.111 151.492C220.635 151.866 220.278 152.372 220.084 152.947C219.961 153.31 219.934 153.699 220.006 154.075C220.061 154.333 220.13 154.458 220.116 154.462C220.042 154.347 219.989 154.219 219.96 154.085C219.863 153.701 219.876 153.297 219.997 152.92C220.179 152.316 220.539 151.782 221.029 151.387C221.698 150.88 222.49 150.562 223.323 150.466C224.241 150.318 225.218 150.337 226.268 150.268C227.383 150.26 228.47 149.914 229.384 149.273C230.311 148.46 230.996 147.405 231.361 146.225C231.82 145.014 232.155 143.702 232.738 142.431C233.232 141.138 234.173 140.068 235.39 139.415C236.573 138.826 237.826 138.6 238.904 138.131C239.432 137.911 239.917 137.6 240.336 137.21L240.625 136.92C240.717 136.818 240.795 136.703 240.877 136.597C241.039 136.388 241.182 136.165 241.304 135.93C241.743 135.05 242.083 134.123 242.318 133.167C242.777 131.427 243.277 130.004 243.951 129.217C244.085 129.037 244.239 128.874 244.41 128.729C244.483 128.664 244.548 128.6 244.612 128.549L244.8 128.429C244.915 128.372 245.033 128.321 245.153 128.277Z" fill="#FAFAFA"/>
<path d="M245.273 114.676C245.294 114.805 245.303 114.936 245.3 115.067C245.299 115.447 245.253 115.826 245.163 116.195C244.768 117.542 243.992 118.745 242.928 119.658C242.227 120.305 241.458 120.875 240.634 121.357C239.749 121.882 238.772 122.383 237.767 122.954C236.711 123.522 235.728 124.216 234.84 125.022C233.928 125.93 233.177 126.987 232.619 128.148C232.056 129.325 231.414 130.462 230.696 131.551C230.332 132.058 229.91 132.522 229.439 132.932C228.975 133.328 228.465 133.667 227.921 133.94C226.935 134.426 225.908 134.822 224.851 135.124C223.869 135.428 222.952 135.699 222.153 136.045C221.429 136.334 220.739 136.705 220.098 137.15C219.615 137.485 219.181 137.887 218.809 138.342C218.496 138.737 218.236 139.17 218.033 139.631C218.066 139.504 218.109 139.379 218.162 139.258C218.312 138.911 218.505 138.583 218.735 138.282C219.101 137.808 219.534 137.389 220.02 137.039C220.664 136.578 221.358 136.192 222.089 135.888C222.973 135.527 223.875 135.211 224.792 134.944C225.833 134.636 226.846 134.238 227.82 133.756C228.336 133.486 228.821 133.158 229.265 132.78C229.718 132.376 230.124 131.921 230.476 131.426C231.184 130.343 231.82 129.214 232.38 128.047C232.956 126.86 233.732 125.782 234.674 124.861C235.579 124.043 236.581 123.341 237.657 122.77C238.666 122.204 239.643 121.711 240.529 121.191C241.35 120.725 242.119 120.172 242.823 119.543C243.877 118.657 244.66 117.49 245.08 116.177C245.198 115.685 245.263 115.182 245.273 114.676Z" fill="#FAFAFA"/>
<path d="M217.409 125.699C217.391 125.67 217.377 125.639 217.368 125.607C217.333 125.518 217.304 125.427 217.281 125.335C217.202 124.969 217.218 124.589 217.327 124.23C217.584 123.309 218.598 122.126 220.231 121.541C221.048 121.26 221.97 121.081 222.933 120.841C223.733 120.708 224.49 120.385 225.141 119.899C225.791 119.413 226.316 118.778 226.673 118.046C226.934 117.51 227.162 116.958 227.356 116.393C227.715 115.168 228.203 113.984 228.811 112.862C229.508 111.759 230.565 110.934 231.802 110.528C232.927 110.161 234.075 109.869 235.239 109.653C236.277 109.453 237.282 109.109 238.226 108.631C239.025 108.172 239.714 107.544 240.244 106.789C241.028 105.699 241.475 104.402 241.529 103.059C241.531 102.567 241.499 102.074 241.433 101.586C241.571 102.064 241.635 102.561 241.621 103.059C241.603 104.431 241.171 105.765 240.382 106.886C239.845 107.665 239.141 108.315 238.322 108.787C237.366 109.283 236.345 109.641 235.289 109.851C234.137 110.07 233 110.364 231.885 110.73C230.697 111.121 229.682 111.913 229.013 112.972C228.414 114.079 227.933 115.246 227.577 116.453C227.378 117.028 227.144 117.589 226.875 118.134C226.603 118.657 226.257 119.138 225.847 119.561C225.041 120.299 224.049 120.8 222.979 121.012C222.006 121.26 221.089 121.417 220.286 121.684C218.694 122.227 217.684 123.346 217.414 124.239C217.303 124.584 217.273 124.949 217.327 125.308C217.365 125.435 217.393 125.566 217.409 125.699Z" fill="#FAFAFA"/>
<path d="M243.575 150.562C243.594 150.658 243.605 150.755 243.607 150.853C243.616 151.132 243.587 151.41 243.52 151.681C243.232 152.68 242.622 153.554 241.786 154.168C241.228 154.614 240.61 154.98 239.951 155.254C239.249 155.554 238.473 155.793 237.656 156.046C236.809 156.295 235.979 156.603 235.174 156.967C234.338 157.368 233.588 157.93 232.967 158.62C232.298 159.32 231.719 160.089 231.077 160.77C230.463 161.43 229.749 161.99 228.962 162.428C227.623 163.161 226.124 163.553 224.599 163.57C223.577 163.581 222.561 163.411 221.598 163.068C221.337 162.978 221.082 162.868 220.836 162.741C220.747 162.704 220.662 162.656 220.584 162.598C220.677 162.621 220.768 162.653 220.855 162.695C221.107 162.803 221.364 162.898 221.626 162.98C222.587 163.283 223.591 163.424 224.599 163.399C226.091 163.361 227.551 162.961 228.856 162.235C229.619 161.801 230.311 161.253 230.907 160.609C231.536 159.937 232.109 159.173 232.793 158.454C233.451 157.738 234.243 157.159 235.124 156.751C235.941 156.385 236.783 156.077 237.643 155.83C238.45 155.581 239.221 155.369 239.937 155.066C240.577 154.803 241.179 154.454 241.726 154.03C242.548 153.447 243.161 152.614 243.474 151.654C243.542 151.294 243.576 150.929 243.575 150.562Z" fill="#FAFAFA"/>
<path d="M241.322 89.5365L237.496 89.6285C237.349 90.4029 237.056 91.142 236.633 91.8064C233.422 86.2351 230.958 78.7761 230.343 75.7787C230.435 75.4794 230.54 75.1479 230.673 74.7795C230.769 74.2201 230.751 73.6471 230.623 73.0944C230.513 72.4267 230.329 71.5289 230.274 71.1145C230.104 69.8437 229.898 69.6457 229.457 69.7884C228.861 69.9864 229.705 73.3476 229.214 73.4213C228.948 73.4581 228.627 72.307 228.535 71.3631C228.443 70.4192 228.012 67.5093 227.705 67.3159C227.246 67.0304 226.847 67.4817 226.966 68.421C227.085 69.3602 227.228 72.2149 226.732 72.2564C226.236 72.2978 225.814 67.4725 225.814 67.4725C225.814 67.4725 225.892 66.4227 225.314 66.4457C224.277 66.4917 225.089 71.5749 225.177 72.0584C225.241 72.3899 224.718 72.4544 224.654 72.0906C224.589 71.7269 224.351 67.2699 223.277 67.3067C222.46 67.3067 223.906 71.492 223.447 72.459C222.988 73.4259 222.676 69.1807 221.901 69.2359C221.612 69.2589 221.396 69.3142 221.928 71.7131C222.438 73.619 223.051 75.4958 223.763 77.335C224.993 83.9882 230.389 105.274 238.845 101.379C243.58 99.1964 245.498 89.5365 245.498 89.5365H241.322Z" fill="#B78876"/>
<path d="M225.011 72.3815C225.048 72.3906 225.085 72.3906 225.122 72.3815C225.177 72.3645 225.224 72.3283 225.256 72.2793C225.287 72.2304 225.299 72.1719 225.291 72.1144C225.291 71.8289 225.236 71.4145 225.172 70.8758C225.065 70.2266 224.994 69.5717 224.961 68.9144C224.961 68.5276 224.961 68.1132 224.984 67.6758C224.991 67.4534 225.014 67.2318 225.053 67.0128C225.089 66.8056 225.227 66.5524 225.388 66.5938H225.415C225.576 66.5938 225.704 66.7135 225.755 66.9069C225.812 67.1073 225.833 67.316 225.819 67.5239C225.914 68.8134 226.077 70.0968 226.31 71.3685C226.347 71.5389 226.383 71.7138 226.438 71.8888C226.463 71.9783 226.493 72.066 226.53 72.1512C226.554 72.1987 226.58 72.2448 226.608 72.2894C226.629 72.323 226.657 72.3514 226.69 72.3722C226.724 72.393 226.762 72.4056 226.801 72.4091C226.868 72.4017 226.931 72.3746 226.982 72.3311C227.034 72.2877 227.071 72.2299 227.09 72.1651C227.129 72.075 227.159 71.9808 227.177 71.8842C227.213 71.6986 227.237 71.511 227.25 71.3225C227.292 70.5552 227.282 69.786 227.218 69.0203C227.16 68.638 227.145 68.2503 227.172 67.8646C227.189 67.698 227.27 67.5444 227.397 67.4364C227.427 67.4188 227.46 67.4077 227.494 67.4038C227.527 67.3998 227.562 67.4031 227.595 67.4134C227.634 67.4227 227.671 67.4383 227.705 67.4594C227.728 67.4769 227.746 67.501 227.755 67.5285C227.9 67.9019 228.006 68.2891 228.072 68.6842C228.154 69.0894 228.223 69.5083 228.287 69.9273C228.352 70.3463 228.411 70.7699 228.462 71.1981C228.501 71.64 228.572 72.0785 228.673 72.5104C228.727 72.7312 228.796 72.9481 228.879 73.1596C228.926 73.278 228.991 73.3883 229.072 73.4865C229.103 73.5273 229.145 73.5585 229.193 73.5764C229.241 73.5944 229.293 73.5983 229.343 73.5878C229.389 73.5724 229.431 73.5453 229.464 73.509C229.497 73.4727 229.52 73.4285 229.531 73.3806C229.585 73.1453 229.602 72.9029 229.581 72.6623C229.581 72.4321 229.554 72.2019 229.531 71.9809C229.499 71.5941 229.462 71.212 229.448 70.8344C229.437 70.6489 229.437 70.4628 229.448 70.2773C229.457 70.1951 229.477 70.1146 229.508 70.0379C229.517 70.0125 229.531 69.9891 229.549 69.9688H229.609C229.912 69.8445 230.013 70.2681 230.095 70.6088C230.178 70.9495 230.21 71.3363 230.283 71.7C230.403 72.4229 230.559 73.1458 230.637 73.8364C230.69 74.1671 230.677 74.5051 230.6 74.831C230.49 75.1625 230.38 75.4894 230.274 75.8163V75.8485V75.8762C230.811 78.1382 231.497 80.3623 232.325 82.534C233.05 84.5001 233.779 86.2175 234.417 87.5988C235.055 88.9801 235.633 90.0622 236.028 90.7896L236.486 91.6138C236.536 91.712 236.596 91.8047 236.665 91.8901C236.627 91.7878 236.579 91.6892 236.523 91.5954L236.064 90.7528C235.688 90.0115 235.147 88.9111 234.523 87.5298C233.899 86.1485 233.192 84.431 232.486 82.465C231.677 80.2965 231.006 78.0789 230.476 75.8255V75.89C230.581 75.5677 230.687 75.2408 230.797 74.9139C230.893 74.555 230.911 74.18 230.852 73.8134C230.77 73.0905 230.618 72.3907 230.499 71.6632C230.43 71.304 230.384 70.9357 230.311 70.5581C230.306 70.3642 230.274 70.1719 230.214 69.9872C230.162 69.8749 230.073 69.7839 229.962 69.7294C229.844 69.6907 229.717 69.6907 229.6 69.7294H229.526C229.487 69.7419 229.451 69.7622 229.421 69.7892C229.37 69.8326 229.33 69.888 229.306 69.9504C229.264 70.05 229.238 70.1557 229.228 70.2635C229.214 70.4628 229.214 70.6627 229.228 70.862C229.228 71.2488 229.283 71.6356 229.315 72.0223C229.315 72.2479 229.352 72.4828 229.361 72.69C229.379 72.8976 229.368 73.1069 229.329 73.3115C229.329 73.3576 229.292 73.3484 229.329 73.3714L229.301 73.3438C229.243 73.2685 229.197 73.1847 229.164 73.0951C229.084 72.896 229.018 72.6913 228.966 72.4828C228.866 72.0635 228.797 71.6371 228.76 71.2074C228.711 70.7745 228.651 70.3463 228.581 69.9227C228.517 69.4991 228.443 69.0848 228.361 68.6704C228.292 68.2486 228.175 67.8361 228.012 67.441C227.981 67.375 227.931 67.3192 227.87 67.2798C227.816 67.2487 227.759 67.224 227.7 67.2062C227.635 67.1889 227.567 67.185 227.5 67.1944C227.433 67.2039 227.368 67.2267 227.31 67.2614C227.216 67.3324 227.137 67.4222 227.078 67.5252C227.02 67.6282 226.983 67.7422 226.971 67.86C226.941 68.0692 226.941 68.2816 226.971 68.4908C226.971 68.6888 227.016 68.8822 227.03 69.0755C227.094 69.8289 227.108 70.5857 227.072 71.3409C227.061 71.5203 227.038 71.6987 227.003 71.875C226.99 71.9573 226.966 72.0377 226.934 72.1144C226.922 72.1448 226.905 72.1728 226.883 72.1973C226.883 72.2387 226.851 72.1973 226.856 72.2525C226.856 72.2065 226.856 72.2525 226.856 72.1927C226.836 72.1616 226.817 72.1293 226.801 72.096C226.769 72.0223 226.741 71.9395 226.714 71.8612C226.663 71.6954 226.626 71.5251 226.59 71.3593C226.35 70.0985 226.177 68.8259 226.071 67.5469C226.085 67.3154 226.059 67.0833 225.993 66.8609C225.963 66.7448 225.901 66.6396 225.814 66.557C225.77 66.5134 225.716 66.4795 225.658 66.4574C225.6 66.4352 225.537 66.4252 225.475 66.428H225.502C225.425 66.4166 225.345 66.4285 225.274 66.4621C225.203 66.4956 225.144 66.5495 225.103 66.6168C225.035 66.7267 224.988 66.8486 224.966 66.976C224.927 67.2043 224.906 67.4351 224.901 67.6666C224.901 68.1271 224.901 68.5276 224.901 68.919C224.945 69.5805 225.029 70.2386 225.154 70.8897C225.232 71.4238 225.291 71.8382 225.319 72.119C225.328 72.1682 225.319 72.2189 225.295 72.2626C225.271 72.3062 225.232 72.3401 225.186 72.3584C225.048 72.3723 225.007 72.3769 225.011 72.3815Z" fill="#A36957"/>
<path d="M195.129 95.8772C194.234 95.8581 193.34 95.9619 192.473 96.1857C190.101 96.8119 186.013 99.2983 185.843 102.369H188.816C188.816 102.369 187.15 105.924 187.637 105.592C188.908 104.736 191.431 102.162 191.431 102.162L195.129 95.8772Z" fill="#B78876"/>
<path d="M235.656 42.361C235.587 42.361 235.321 39.9022 235.055 36.8358C234.789 33.7693 234.623 31.3105 234.688 31.3105C234.752 31.3105 235.023 33.7693 235.289 36.8358C235.555 39.9022 235.72 42.361 235.656 42.361Z" fill="#323232"/>
<path d="M248.691 31.5004C248.741 31.5372 246.736 34.4609 244.208 38.0293C241.68 41.5977 239.584 44.4754 239.528 44.4201C239.473 44.3649 241.483 41.4595 244.011 37.8912C246.539 34.3228 248.636 31.4635 248.691 31.5004Z" fill="#323232"/>
<path d="M254.105 44.7505C254.105 44.815 251.774 45.3537 248.875 45.9522C245.975 46.5508 243.608 46.9836 243.594 46.9192C243.58 46.8547 245.92 46.316 248.824 45.7174C251.729 45.1188 254.073 44.686 254.105 44.7505Z" fill="#323232"/>
<path d="M98.0762 107.99L81.8342 191.697L79.7236 202.655L188.004 202.13C192.867 202.107 197.18 197.775 198.736 191.338L217.942 112.313C219.13 107.428 216.524 102.345 212.835 102.35L103.215 102.465C100.829 102.46 98.691 104.725 98.0762 107.99Z" fill="#C5292A"/>
<g opacity="0.5">
<path opacity="0.5" d="M98.0762 107.99L81.8342 191.697L79.7236 202.655L188.004 202.13C192.867 202.107 197.18 197.775 198.736 191.338L217.942 112.313C219.13 107.428 216.524 102.345 212.835 102.35L103.215 102.465C100.829 102.46 98.691 104.725 98.0762 107.99Z" fill="black"/>
</g>
<path d="M177.63 186.015L166.159 93.2793C165.701 89.4807 162.677 86.6444 159.112 86.6583L133.969 86.7365C133.035 86.7471 132.112 86.9485 131.258 87.3285C130.404 87.7084 129.635 88.259 129 88.9466L117.071 101.687L47.1474 102.064C42.8758 102.087 39.5907 106.148 40.155 110.707L50.8041 196.417C51.2629 200.211 54.2865 203.042 57.8423 203.038L179.727 202.794C193.298 203.074 194.597 199.055 194.597 199.055C179.015 202.513 177.63 186.038 177.63 186.015Z" fill="#C5292A"/>
<g opacity="0.5">
<path opacity="0.5" d="M125.072 167.468L120.961 171.898L89.3027 143.314L93.4137 138.885L125.072 167.468Z" fill="white"/>
<path opacity="0.5" d="M119.24 137.904L123.782 142.007L95.1341 172.879L90.5918 168.776L119.24 137.904Z" fill="white"/>
</g>
<path d="M195.033 47.7834C194.884 47.7206 194.757 47.6167 194.665 47.4838C194.573 47.3509 194.521 47.1945 194.514 47.0329L194.331 42.7601C194.324 42.6273 194.349 42.4949 194.402 42.3732C194.455 42.2515 194.536 42.144 194.638 42.0591C194.74 41.9743 194.86 41.9144 194.989 41.8842C195.118 41.854 195.253 41.8544 195.381 41.8853C195.737 41.9622 196.104 41.9655 196.461 41.895C196.817 41.8246 197.156 41.6818 197.455 41.4755C197.731 41.3002 197.968 41.07 198.152 40.7992C198.336 40.5284 198.463 40.2226 198.524 39.9008C198.566 39.5749 198.542 39.244 198.454 38.9276C198.365 38.6112 198.215 38.3159 198.01 38.059C197.795 37.7668 197.525 37.52 197.215 37.3328C196.905 37.1455 196.561 37.0215 196.203 36.9678C195.481 36.9275 194.766 37.1329 194.175 37.5507C193.584 37.9685 193.151 38.5743 192.945 39.27C192.877 39.4808 192.73 39.6569 192.535 39.7617C192.34 39.8665 192.113 39.8919 191.9 39.8325C191.687 39.7732 191.505 39.6337 191.392 39.4431C191.279 39.2526 191.244 39.0256 191.293 38.8096C191.606 37.7153 192.284 36.7623 193.214 36.1107C194.144 35.4592 195.269 35.1489 196.4 35.232C196.989 35.3107 197.556 35.5074 198.067 35.8103C198.579 36.1132 199.024 36.5163 199.378 36.9954C199.721 37.4395 199.973 37.9483 200.117 38.4916C200.261 39.035 200.295 39.6018 200.217 40.1586C200.113 40.7146 199.896 41.2433 199.581 41.7121C199.265 42.1809 198.857 42.5798 198.382 42.8844C197.694 43.3495 196.89 43.6126 196.06 43.6441L196.203 46.9408C196.208 47.0857 196.177 47.2295 196.112 47.359C196.047 47.4886 195.951 47.5996 195.832 47.6817C195.713 47.7639 195.575 47.8147 195.431 47.8292C195.288 47.8438 195.143 47.8217 195.01 47.765L195.033 47.7834Z" fill="#C5292A"/>
<path d="M196.29 49.5327C196.3 49.6718 196.268 49.8106 196.199 49.9315C196.13 50.0525 196.027 50.1503 195.903 50.2124C195.778 50.2745 195.638 50.2982 195.501 50.2805C195.363 50.2628 195.233 50.2045 195.129 50.1129C195.024 50.0214 194.949 49.9007 194.912 49.7662C194.876 49.6316 194.88 49.4893 194.924 49.3572C194.969 49.2251 195.051 49.1091 195.161 49.024C195.271 48.9388 195.404 48.8883 195.542 48.8789C195.634 48.872 195.727 48.8835 195.814 48.9127C195.902 48.9419 195.982 48.9883 196.052 49.0491C196.122 49.1099 196.178 49.184 196.219 49.267C196.26 49.35 196.284 49.4403 196.29 49.5327Z" fill="#C5292A"/>
<path d="M180.291 41.7569C180.311 41.6658 180.324 41.5735 180.332 41.4806C180.332 41.2781 180.383 41.0202 180.419 40.6565C180.464 40.2099 180.54 39.7669 180.644 39.3304C180.704 39.0726 180.736 38.7871 180.828 38.497C180.919 38.207 181.011 37.8939 181.112 37.5762C181.643 36.0021 182.417 34.5214 183.406 33.1882C184.702 31.4619 186.345 30.0281 188.228 28.9798C189.3 28.3733 190.442 27.9002 191.628 27.5709C192.908 27.2304 194.227 27.0571 195.551 27.0552C196.249 27.044 196.946 27.0809 197.639 27.1657C197.992 27.2026 198.341 27.2947 198.694 27.3545C199.051 27.4159 199.404 27.5021 199.749 27.6124C201.195 28.0179 202.571 28.6437 203.828 29.4679C206.623 31.2872 208.752 33.9701 209.893 37.1111C210.508 38.7937 210.819 40.5727 210.811 42.3647C210.83 44.2107 210.505 46.0441 209.852 47.7702L209.646 48.2951L209.618 48.3641L209.646 48.4332C210.797 51.0899 211.94 53.7006 213.018 56.2284L213.211 56.0074L206.329 53.3599L206.246 53.3276L206.177 53.3921C204.356 55.1623 202.128 56.4531 199.689 57.1492C197.606 57.7248 195.425 57.8505 193.289 57.5179C191.154 57.1854 189.113 56.4022 187.301 55.22C185.818 54.2435 184.51 53.0214 183.434 51.6056C181.874 49.5391 180.864 47.1086 180.497 44.5425C180.442 44.0821 180.396 43.6953 180.355 43.3454C180.314 42.9955 180.355 42.71 180.332 42.466C180.309 42.2219 180.332 42.0608 180.332 41.9273C180.355 41.9238 180.376 41.9118 180.39 41.8936C180.405 41.8754 180.412 41.8525 180.41 41.8293C180.408 41.8061 180.398 41.7845 180.381 41.7687C180.364 41.7529 180.341 41.7441 180.318 41.7441C180.295 41.7441 180.273 41.7529 180.256 41.7687C180.239 41.7845 180.229 41.8061 180.227 41.8293C180.225 41.8525 180.232 41.8754 180.247 41.8936C180.261 41.9118 180.282 41.9238 180.305 41.9273C180.305 42.0608 180.305 42.2404 180.305 42.466C180.305 42.6916 180.305 43.0047 180.305 43.3546C180.305 43.7045 180.383 44.1051 180.428 44.561C180.579 45.6684 180.842 46.7576 181.213 47.8116C181.738 49.2036 182.445 50.5196 183.314 51.7253C184.395 53.1663 185.712 54.412 187.21 55.4088C189.044 56.6205 191.113 57.427 193.282 57.7747C195.45 58.1224 197.667 58.0033 199.786 57.4255C202.253 56.7222 204.51 55.419 206.356 53.6315L206.205 53.6637L213.087 56.3251L213.431 56.4586L213.28 56.104C212.188 53.5763 211.059 50.9702 209.912 48.3089V48.4424L210.123 47.9037C210.792 46.14 211.125 44.2657 211.105 42.3785C211.119 40.5484 210.808 38.7305 210.187 37.0098C209.021 33.8062 206.845 31.0723 203.989 29.2239C202.7 28.3805 201.288 27.7436 199.804 27.3361C199.453 27.2246 199.094 27.1399 198.731 27.0829C198.373 27.0184 198.019 26.9263 197.661 26.8941C196.96 26.8067 196.253 26.7667 195.546 26.7744C194.201 26.7801 192.862 26.9627 191.564 27.3177C190.362 27.6602 189.205 28.1455 188.118 28.7634C186.216 29.8374 184.563 31.3049 183.268 33.0685C182.283 34.4238 181.519 35.9284 181.007 37.5255C180.91 37.857 180.818 38.1747 180.736 38.4464C180.663 38.7239 180.605 39.0052 180.561 39.289C180.463 39.7284 180.399 40.1748 180.369 40.6242C180.341 40.9788 180.323 41.2504 180.309 41.453C180.29 41.5531 180.284 41.6552 180.291 41.7569Z" fill="#323232"/>
</g>
<defs>
<clipPath id="clip0_2_1146">
<rect width="276" height="204" fill="white" transform="translate(0.5)"/>
</clipPath>
</defs>
</svg>
